<svg version="1.0" xmlns="http://www.w3.org/2000/svg" width="256" height="256" viewBox="0 0 192 192"><path d="M73.5 50.4c-17.3 2.5-29.7 6.7-35 12-2.4 2.4-2.5 3-2.5 14.9 0 12.1 0 12.4 2.7 15 6.9 6.5 24.3 11.4 44.6 12.4l12.7.6v-9.1c0-5.1.3-9.2.8-9.2.4 0 11.1 2.5 23.8 5.7 25.9 6.4 26.3 6.4 33.1-.4l3.3-3.4V77.5c0-11.3 0-11.5-3-14.9-3.8-4.2-13.1-8.1-26-10.7-12.4-2.6-41.8-3.4-54.5-1.5zM96.2 115.1l.3 9.2 23.8 5.8 23.8 5.9 3.8-2c2.1-1 5-3.3 6.5-5 2.4-2.9 2.6-3.9 2.6-12.2v-9l-2.9 2.9c-1.5 1.6-4.6 3.7-6.8 4.6l-3.9 1.8-22.2-5.5c-12.2-3.1-22.8-5.6-23.7-5.6-1.3 0-1.5 1.4-1.3 9.1zM36 118c0 10.4.8 11.9 9.6 16.3 8.9 4.5 30.6 8.7 45.2 8.7H96v-19h-6.3c-12.9 0-33.2-3.7-42.9-7.9-2.4-1-5.8-3-7.6-4.5l-3.2-2.8v9.2z"/></svg>